PathFileType	4	(X/Y/Z)	Walk9.trc
DataRate	CameraRate	NumFrames	NumMarkers	Units	OrigDataRate	OrigDataStartFrame	OrigNumFrames
200.000000	200.000000	7	67	mm	200.000000	794	954
Frame#	Times		RCAR		LowerBodyModelVer		RUA1		LFHD		LTB3		LTH3		LTB2		RASI		LTB4		RFHD		LACR1		LTH1		RElbow		LToe		RACR1		RBHD		RTH3		LUA1		LCAR		RFA1		RWRU		RLFC		LASI		PELOrigin		RTH4		CLAV		LTH2		LWRR		RTB4		C7		STRN		LLFC		RBack		LElbow		RMT1		LFA1		RTH1		RTB3		LTB1		RTH2		LWRU		RToe		LPSI		RPSI		RTB1		LHJC		MidPelvis		OPelvis		RHJC		SACR		XPelvis		YPelvis		ZPelvis		LTH4		RTB2		RWRR		LElbowM		LMT1		LBHD		RLMAL		RMMAL		RCAL		LMMAL		T10		RElbowM		LCAL		LMT5
			X1	Y1	Z1	X2	Y2	Z2	X3	Y3	Z3	X4	Y4	Z4	X5	Y5	Z5	X6	Y6	Z6	X7	Y7	Z7	X8	Y8	Z8	X9	Y9	Z9	X10	Y10	Z10	X11	Y11	Z11	X12	Y12	Z12	X13	Y13	Z13	X14	Y14	Z14	X15	Y15	Z15	X16	Y16	Z16	X17	Y17	Z17	X18	Y18	Z18	X19	Y19	Z19	X20	Y20	Z20	X21	Y21	Z21	X22	Y22	Z22	X23	Y23	Z23	X24	Y24	Z24	X25	Y25	Z25	X26	Y26	Z26	X27	Y27	Z27	X28	Y28	Z28	X29	Y29	Z29	X30	Y30	Z30	X31	Y31	Z31	X32	Y32	Z32	X33	Y33	Z33	X34	Y34	Z34	X35	Y35	Z35	X36	Y36	Z36	X37	Y37	Z37	X38	Y38	Z38	X39	Y39	Z39	X40	Y40	Z40	X41	Y41	Z41	X42	Y42	Z42	X43	Y43	Z43	X44	Y44	Z44	X45	Y45	Z45	X46	Y46	Z46	X47	Y47	Z47	X48	Y48	Z48	X49	Y49	Z49	X50	Y50	Z50	X51	Y51	Z51	X52	Y52	Z52	X53	Y53	Z53	X54	Y54	Z54	X55	Y55	Z55	X56	Y56	Z56	X57	Y57	Z57	X58	Y58	Z58	X59	Y59	Z59	X60	Y60	Z60	X61	Y61	Z61	X62	Y62	Z62	X63	Y63	Z63	X64	Y64	Z64	X65	Y65	Z65	X66	Y66	Z66	X67	Y67	Z67

794	3.97	430.96	777.12	346.92	9	2014	4	385.7	1189.5	276.02	521.52	1582.4	-23.336	331.38	228.63	-63.511	476.43	588.82	-143.1	380.49	305.3	-111.79	516.47	985.75	173.54	399.78	280.37	-59.363	530.31	1580	70.795	390.13	1382.5	-128.55	426.67	746.92	-185.01	332.47	1071.5	305.32	314.59	30.012	-71.028	398.1	1371.9	181.89	373.78	1554.5	102.76	453.03	585.81	197.11	384.09	1203.3	-225.63	482.13	799.13	-236.88	340.05	924.69	325.33	364.93	817.25	334.92	454.28	498.61	171.18	503.5	960.36	-120	509.98	973.05	26.771	449.07	668.17	218.12	456.65	1340.5	22.461	506.92	689.64	-155.18	454.9	846.68	-202.59	473.1	254.58	91.312	319.06	1417.8	35.594	517.9	1238.8	25.956	503.31	476.64	-121.98	270.33	1318.6	139.09	351.6	1078.6	-255.61	523.02	33.755	58.056	377.79	940.13	-263.22	448.35	752.36	243.06	459.23	170.27	93.973	470.08	332.31	-59.524	505.38	676.52	200.67	419.88	831.08	-263.82	591.6	29.466	85.692	260.51	957.38	-12.738	262.33	968.41	76.195	486	341.03	95.31	440.27	867.8	-61.79	385.7	967.97	29.25	509.98	973.05	26.771	449.09	885.06	137.81	261.42	962.89	31.729	589.83	976.13	22.977	506.59	1052.7	20.035	513.5	979.94	106.4	451.5	669.51	-158.21	452.5	258.35	150.74	422.06	826.17	293.17	310.01	1051.7	-185.78	275.39	71.798	-31.119	363.64	1550	-39.218	409.59	61.125	119.2	422.07	67.952	36.468	344.66	27.963	85.43	241.62	170.93	-2.9701	246.44	1150.3	23.499	321.77	1039.8	212	161.55	209.28	-38.178	277.45	78.469	-100.85
795	3.975	440.83	779.14	347.86	9	2014	4	391.96	1190.4	276.43	527.48	1582.9	-23.267	346.47	227.19	-62.483	485.43	590.15	-142.65	394.07	304.7	-110.88	521.9	985.88	173.84	413.82	280.26	-58.406	536.21	1580.4	70.865	395.71	1382.8	-128.61	432.95	747.41	-184.51	339.24	1072.3	306.04	336.14	30.28	-70.681	404.19	1372.6	181.84	379.67	1554.9	102.72	456.23	585.78	196.93	388.82	1203.5	-225.51	483.17	797.86	-237.08	348.2	925.55	326.16	374.24	818.27	335.56	456.23	498.57	171.15	509.15	961.29	-119.71	515.52	973.58	27.068	452.94	668.14	217.94	462.59	1340.9	22.34	514.3	691.41	-155.39	456.5	845.83	-202.87	473.6	254.52	91.224	325.02	1418.3	35.671	523.68	1239.2	25.34	513.88	478.34	-121.41	276.31	1319.3	139.36	355.66	1078.9	-255.23	523.04	33.727	58.066	380.59	940.28	-263.2	452.97	752.3	242.96	459.53	170.23	93.89	483.08	333.52	-58.656	509.25	676.11	200.31	421.6	830.89	-264.38	591.64	29.451	85.739	266.02	958.1	-12.312	267.96	968.98	76.598	486.69	340.94	95.206	445.85	868.62	-61.808	391.26	968.56	29.605	515.52	973.58	27.068	454.52	885.34	137.8	266.99	963.54	32.143	595.38	976.64	23.344	512.17	1053.2	20.54	518.98	980.26	106.71	459.15	670.43	-157.78	453.15	258.32	150.71	431.4	827.89	293.95	314.07	1052.3	-185.29	295.31	70.201	-30.682	369.61	1550.5	-39.252	409.64	61.165	119.15	422.09	67.955	36.394	344.67	28.09	85.366	257.94	167.73	-1.9046	252.17	1150.9	24.144	328.47	1040.4	212.84	176.49	203.58	-37.173	297.34	77.687	-100.25
796	3.98	450.66	781.14	348.77	9	2014	4	398.18	1191.3	276.86	533.43	1583.3	-23.222	361.69	225.61	-61.456	494.34	591.47	-142.19	407.69	303.97	-109.98	527.31	985.99	174.15	427.91	280.06	-57.443	542.1	1580.8	70.911	401.28	1383	-128.67	439.25	747.84	-184.07	345.99	1073.1	306.76	357.86	30.554	-70.201	410.3	1373.3	181.78	385.55	1555.2	102.67	459.44	585.75	196.73	393.53	1203.6	-225.38	484.22	796.63	-237.39	356.32	926.37	326.95	383.52	819.26	336.16	458.11	498.53	171.13	514.84	962.15	-119.38	521.08	974.07	27.388	456.87	668.12	217.75	468.52	1341.2	22.207	521.61	693.12	-155.58	458.16	844.98	-203.22	474.08	254.48	91.17	330.97	1418.8	35.746	529.45	1239.5	24.712	524.33	480.02	-120.81	282.31	1320	139.63	359.69	1079.2	-254.84	523.06	33.701	58.08	383.37	940.41	-263.21	457.7	752.22	242.83	459.81	170.21	93.83	496.04	334.69	-57.775	513.16	675.68	199.87	423.29	830.69	-264.95	591.68	29.434	85.785	271.53	958.75	-11.947	273.57	969.5	76.944	487.37	340.85	95.147	451.47	869.38	-61.79	396.81	969.1	29.943	521.08	974.07	27.388	459.95	885.6	137.81	272.55	964.12	32.499	600.93	977.11	23.748	517.75	1053.8	21.057	524.46	980.54	107.05	466.76	671.31	-157.37	453.76	258.31	150.7	440.73	829.61	294.71	318.14	1052.8	-184.78	315.41	68.554	-30.171	375.56	1550.9	-39.308	409.68	61.209	119.1	422.12	67.961	36.321	344.67	28.227	85.304	274.45	164.35	-0.86299	257.89	1151.4	24.783	335.17	1041	213.66	191.71	197.55	-36.249	317.41	76.801	-99.563
797	3.985	460.45	783.11	349.64	9	2014	4	404.36	1192.2	277.3	539.35	1583.7	-23.203	377.04	223.91	-60.436	503.15	592.76	-141.73	421.37	303.12	-109.1	532.71	986.08	174.47	442.04	279.78	-56.478	547.96	1581.2	70.933	406.84	1383.2	-128.74	445.57	748.23	-183.68	352.71	1073.8	307.45	379.71	30.832	-69.61	416.42	1373.9	181.72	391.41	1555.5	102.6	462.64	585.72	196.53	398.23	1203.7	-225.25	485.28	795.43	-237.8	364.42	927.14	327.7	392.78	820.22	336.7	459.94	498.51	171.13	520.56	962.94	-119.01	526.64	974.51	27.729	460.85	668.08	217.54	474.44	1341.4	22.062	528.87	694.77	-155.77	459.88	844.15	-203.64	474.54	254.43	91.152	336.92	1419.3	35.818	535.22	1239.8	24.076	534.64	481.68	-120.19	288.33	1320.6	139.92	363.68	1079.4	-254.46	523.09	33.679	58.098	386.12	940.52	-263.23	462.52	752.12	242.68	460.1	170.2	93.797	508.96	335.83	-56.882	517.09	675.21	199.37	424.96	830.49	-265.54	591.72	29.415	85.833	277.05	959.33	-11.645	279.17	969.95	77.233	488.04	340.78	95.134	457.13	870.09	-61.737	402.37	969.57	30.262	526.64	974.51	27.729	465.39	885.83	137.83	278.11	964.64	32.794	606.5	977.54	24.184	523.35	1054.2	21.582	529.94	980.79	107.41	474.32	672.17	-156.98	454.32	258.3	150.71	450.04	831.31	295.45	322.22	1053.4	-184.26	335.69	66.865	-29.602	381.5	1551.2	-39.385	409.73	61.257	119.06	422.15	67.968	36.251	344.68	28.373	85.243	291.17	160.79	0.14899	263.6	1151.9	25.416	341.85	1041.5	214.45	207.22	191.23	-35.409	337.66	75.813	-98.81
798	3.99	470.19	785.06	350.49	9	2014	4	410.51	1193	277.75	545.26	1584	-23.209	392.54	222.09	-59.429	511.85	594.03	-141.27	435.11	302.13	-108.24	538.11	986.14	174.8	456.22	279.42	-55.515	553.81	1581.5	70.932	412.4	1383.3	-128.81	451.92	748.56	-183.34	359.4	1074.5	308.13	401.68	31.114	-68.933	422.56	1374.4	181.64	397.26	1555.7	102.5	465.82	585.69	196.34	402.92	1203.7	-225.11	486.36	794.26	-238.31	372.48	927.87	328.42	402	821.14	337.2	461.7	498.49	171.14	526.32	963.65	-118.62	532.21	974.9	28.088	464.86	668.03	217.33	480.35	1341.6	21.906	536.07	696.35	-155.93	461.64	843.31	-204.12	474.99	254.4	91.172	342.86	1419.7	35.887	540.98	1240	23.438	544.8	483.3	-119.54	294.36	1321.2	140.22	367.64	1079.6	-254.08	523.11	33.66	58.117	388.85	940.61	-263.26	467.44	752.01	242.52	460.37	170.19	93.79	521.84	336.93	-55.978	521.03	674.7	198.82	426.61	830.28	-266.13	591.76	29.394	85.881	282.56	959.84	-11.404	284.77	970.33	77.463	488.69	340.71	95.167	462.82	870.73	-61.646	407.94	969.99	30.559	532.21	974.9	28.088	470.83	886.03	137.87	283.66	965.09	33.029	612.08	977.91	24.65	528.95	1054.6	22.108	535.41	981.01	107.79	481.83	672.99	-156.6	454.83	258.3	150.74	459.34	832.99	296.18	326.29	1053.8	-183.73	356.14	65.142	-28.991	387.42	1551.5	-39.482	409.77	61.307	119.01	422.18	67.976	36.185	344.7	28.529	85.186	308.09	157.09	1.1257	269.32	1152.3	26.041	348.54	1042	215.23	223.04	184.65	-34.653	358.07	74.726	-98.009
799	3.995	479.89	786.96	351.3	9	2014	4	416.64	1193.8	278.2	551.15	1584.3	-23.24	408.17	220.17	-58.44	520.43	595.27	-140.79	448.9	301.04	-107.4	543.49	986.18	175.13	470.43	278.98	-54.557	559.65	1581.8	70.907	417.96	1383.4	-128.89	458.27	748.85	-183.05	366.07	1075.1	308.8	423.74	31.398	-68.197	428.71	1374.9	181.56	403.09	1555.9	102.38	468.97	585.65	196.14	407.6	1203.7	-224.96	487.45	793.11	-238.92	380.52	928.54	329.11	411.19	822.01	337.65	463.4	498.48	171.18	532.1	964.26	-118.2	537.8	975.22	28.463	468.9	667.97	217.12	486.25	1341.8	21.742	543.2	697.86	-156.08	463.45	842.47	-204.66	475.44	254.37	91.229	348.8	1420	35.95	546.73	1240.2	22.803	554.79	484.89	-118.87	300.42	1321.7	140.52	371.57	1079.7	-253.7	523.14	33.645	58.138	391.55	940.67	-263.31	472.43	751.87	242.35	460.63	170.2	93.81	534.66	338	-55.064	524.98	674.16	198.24	428.23	830.05	-266.74	591.8	29.371	85.931	288.07	960.28	-11.226	290.36	970.65	77.635	489.35	340.65	95.245	468.53	871.3	-61.52	413.51	970.34	30.834	537.8	975.22	28.463	476.28	886.2	137.94	289.22	965.46	33.204	617.67	978.22	25.138	534.56	1054.9	22.632	540.89	981.18	108.18	489.28	673.77	-156.24	455.31	258.3	150.8	468.63	834.65	296.88	330.38	1054.3	-183.19	376.76	63.393	-28.358	393.33	1551.7	-39.601	409.82	61.36	118.96	422.2	67.984	36.125	344.72	28.695	85.133	325.24	153.24	2.0611	275.03	1152.7	26.656	355.22	1042.5	215.98	239.18	177.84	-33.98	378.61	73.546	-97.184
800	4	489.52	788.82	352.08	9	2014	4	422.75	1194.4	278.65	557.03	1584.5	-23.296	423.94	218.16	-57.473	528.88	596.47	-140.3	462.74	299.84	-106.59	548.87	986.19	175.46	484.68	278.49	-53.608	565.47	1582	70.859	423.51	1383.4	-128.98	464.63	749.1	-182.81	372.73	1075.7	309.44	445.87	31.682	-67.434	434.88	1375.3	181.47	408.91	1556	102.25	472.08	585.62	195.96	412.27	1203.6	-224.8	488.57	791.99	-239.63	388.52	929.16	329.76	420.34	822.85	338.04	465.05	498.47	171.23	537.91	964.78	-117.76	543.39	975.48	28.85	472.96	667.89	216.91	492.15	1341.9	21.568	550.27	699.29	-156.2	465.29	841.63	-205.25	475.87	254.34	91.322	354.74	1420.2	36.008	552.47	1240.3	22.178	564.6	486.43	-118.18	306.49	1322.2	140.84	375.48	1079.8	-253.32	523.17	33.633	58.16	394.23	940.71	-263.36	477.5	751.7	242.18	460.89	170.21	93.856	547.41	339.04	-54.142	528.93	673.56	197.63	429.83	829.81	-267.35	591.84	29.346	85.983	293.59	960.64	-11.108	295.95	970.9	77.749	489.99	340.58	95.364	474.27	871.78	-61.358	419.08	970.63	31.085	543.39	975.48	28.85	481.73	886.34	138.03	294.77	965.77	33.321	623.27	978.48	25.645	540.17	1055.2	23.149	546.37	981.3	108.58	496.67	674.52	-155.89	455.74	258.31	150.88	477.89	836.28	297.56	334.47	1054.6	-182.64	397.53	61.625	-27.725	399.23	1551.8	-39.74	409.87	61.416	118.91	422.23	67.992	36.074	344.74	28.868	85.085	342.61	149.27	2.9475	280.74	1153	27.258	361.9	1042.8	216.7	255.66	170.83	-33.384	399.27	72.28	-96.358
